<svg xmlns="http://www.w3.org/2000/svg" viewBox="0 0 100 100" role="img" aria-label="Wet lab mark — Erlenmeyer flask + liquid (slate blue)">
  <!-- chassis -->
  <path d="M 19 5 L 81 5 A 14 14 0 0 1 95 19 L 95 81 A 14 14 0 0 1 81 95 L 19 95 A 14 14 0 0 1 5 81 L 5 19 A 14 14 0 0 1 19 5 Z"
        stroke="#355a85" stroke-width="9" fill="none" stroke-linejoin="miter"/>
  <!-- liquid: small filled accent inside the body, meniscus at y=58 -->
  <path d="M 36 58 L 64 58 L 70 70 A 6 6 0 0 1 65 78 L 35 78 A 6 6 0 0 1 30 70 Z"
        fill="#355a85" stroke="none"/>
  <!-- Erlenmeyer flask outline: stroke-only, includes the lip at the top -->
  <path d="M 35 18 L 65 18 L 65 22 L 58 22 L 58 44 L 70 70 A 6 6 0 0 1 65 78 L 35 78 A 6 6 0 0 1 30 70 L 42 44 L 42 22 L 35 22 Z"
        stroke="#355a85" stroke-width="8" fill="none" stroke-linecap="round" stroke-linejoin="round"/>
</svg>
