<svg xmlns="http://www.w3.org/2000/svg" viewBox="0 0 100 100" role="img" aria-label="Wet lab mark — Erlenmeyer flask (slate blue)">
  <!-- chassis -->
  <path d="M 19 5 L 81 5 A 14 14 0 0 1 95 19 L 95 81 A 14 14 0 0 1 81 95 L 19 95 A 14 14 0 0 1 5 81 L 5 19 A 14 14 0 0 1 19 5 Z"
        stroke="#355a85" stroke-width="9" fill="none" stroke-linejoin="miter"/>
  <!-- Erlenmeyer flask: outer silhouette + inner neck cavity (hollow via evenodd) -->
  <path fill-rule="evenodd" fill="#355a85" stroke="none"
        d="M 35 17 A 3 3 0 0 1 38 14 L 62 14 A 3 3 0 0 1 65 17 L 65 22 L 59 22 L 59 42 L 86 80 A 6 6 0 0 1 80 86 L 20 86 A 6 6 0 0 1 14 80 L 41 42 L 41 22 L 35 22 Z
           M 45 22 L 55 22 L 55 42 L 45 42 Z"/>
</svg>
