<svg xmlns="http://www.w3.org/2000/svg" viewBox="0 0 100 100" role="img" aria-label="Biomarker — multi-omics funnel into ML model">

  
  <g fill="#355a85"><circle cx="6" cy="20" r="3.5"></circle><circle cx="6" cy="50" r="3.5"></circle><circle cx="6" cy="80" r="3.5"></circle></g>
  <g stroke="#355a85" stroke-width="5" stroke-linecap="round">
    <line x1="10" y1="20" x2="36" y2="44"></line>
    <line x1="10" y1="50" x2="36" y2="50"></line>
    <line x1="10" y1="80" x2="36" y2="56"></line>
  </g>
  
  <circle cx="52" cy="50" r="16" stroke="#355a85" stroke-width="5" fill="none"></circle>
  <g stroke="#355a85" stroke-width="2.2">
    <line x1="44" y1="44" x2="60" y2="56"></line>
    <line x1="44" y1="56" x2="60" y2="44"></line>
    <line x1="44" y1="50" x2="60" y2="50"></line>
  </g>
  <g fill="#355a85">
    <circle cx="44" cy="44" r="2"></circle><circle cx="44" cy="56" r="2"></circle><circle cx="60" cy="44" r="2"></circle><circle cx="60" cy="56" r="2"></circle>
  </g>
  
  <polyline points="70,62 78,52 86,46 94,30" stroke="#355a85" stroke-width="5" fill="none" stroke-linecap="round" stroke-linejoin="round"></polyline>
  <polyline points="89,30 95,30 95,36" stroke="#355a85" stroke-width="5" fill="none" stroke-linecap="round" stroke-linejoin="round"></polyline>
</svg>