<svg xmlns="http://www.w3.org/2000/svg" viewBox="0 0 100 100" role="img" aria-label="Biomarker — multi-omics ML pipeline (stages)">

  
  <g stroke="#355a85" stroke-linecap="round" fill="none">
    <line x1="6" y1="24" x2="26" y2="24" stroke-width="6" stroke-dasharray="5 4"></line>
    <line x1="6" y1="42" x2="26" y2="42" stroke-width="6"></line>
    <line x1="6" y1="60" x2="26" y2="60" stroke-width="6" stroke-dasharray="1 4"></line>
  </g>
  <g fill="#355a85">
    <circle cx="11" cy="78" r="2.5"></circle><circle cx="19" cy="78" r="2.5"></circle><circle cx="27" cy="78" r="2.5"></circle>
  </g>
  
  <line x1="32" y1="50" x2="40" y2="50" stroke="#355a85" stroke-width="4" stroke-linecap="round"></line>
  <polyline points="37,46 41,50 37,54" stroke="#355a85" stroke-width="4" fill="none" stroke-linecap="round" stroke-linejoin="round"></polyline>
  
  <g stroke="#355a85" stroke-width="2.4">
    <line x1="48" y1="34" x2="60" y2="50"></line><line x1="48" y1="50" x2="60" y2="50"></line><line x1="48" y1="66" x2="60" y2="50"></line>
    <line x1="60" y1="50" x2="72" y2="50"></line>
  </g>
  <g fill="#355a85">
    <circle cx="48" cy="34" r="3.4"></circle><circle cx="48" cy="50" r="3.4"></circle><circle cx="48" cy="66" r="3.4"></circle>
    <circle cx="60" cy="50" r="4.2"></circle>
  </g>
  
  <line x1="64" y1="50" x2="72" y2="50" stroke="#355a85" stroke-width="4" stroke-linecap="round"></line>
  <polyline points="69,46 73,50 69,54" stroke="#355a85" stroke-width="4" fill="none" stroke-linecap="round" stroke-linejoin="round"></polyline>
  
  <rect x="78" y="56" width="6" height="22" fill="#355a85"></rect>
  <rect x="86" y="44" width="6" height="34" fill="#355a85"></rect>
  <rect x="94" y="50" width="4" height="28" fill="#355a85"></rect>
</svg>