<svg xmlns="http://www.w3.org/2000/svg" viewBox="0 0 100 100" role="img" aria-label="Immunoassay QC — 96-well plate">

  <rect x="6" y="12" width="88" height="60" rx="4" stroke="#355a85" stroke-width="6" fill="none"></rect>
  <circle cx="18" cy="24" r="3.2" fill="#355a85"></circle><circle cx="30.4" cy="24" r="3.2" fill="#355a85"></circle><circle cx="42.8" cy="24" r="3.2" fill="#355a85"></circle><circle cx="55.2" cy="24" r="3.2" fill="#355a85"></circle><circle cx="67.6" cy="24" r="3.2" fill="#355a85"></circle><circle cx="80" cy="24" r="3.2" fill="#355a85"></circle><circle cx="18" cy="36" r="3.2" fill="#355a85"></circle><circle cx="30.4" cy="36" r="3.2" fill="#355a85"></circle><circle cx="42.8" cy="36" r="3.2" fill="#355a85"></circle><circle cx="55.2" cy="36" r="3.2" fill="#355a85"></circle><circle cx="67.6" cy="36" r="3.2" fill="#355a85"></circle><circle cx="80" cy="36" r="3.2" fill="#355a85"></circle><circle cx="18" cy="48" r="3.2" fill="#355a85"></circle><circle cx="30.4" cy="48" r="3.2" fill="#355a85"></circle><circle cx="42.8" cy="48" r="3.2" fill="#355a85"></circle><circle cx="55.2" cy="48" r="3.2" fill="#355a85"></circle><circle cx="67.6" cy="48" r="3.2" fill="#355a85"></circle><circle cx="80" cy="48" r="3.2" fill="#355a85"></circle><circle cx="18" cy="60" r="3.2" fill="#355a85"></circle><circle cx="30.4" cy="60" r="3.2" fill="#355a85"></circle><circle cx="42.8" cy="60" r="3.2" fill="#355a85"></circle><circle cx="55.2" cy="60" r="3.2" fill="#355a85"></circle><circle cx="67.6" cy="60" r="3.2" fill="#355a85"></circle><circle cx="80" cy="60" r="3.2" fill="#355a85"></circle>
  <rect x="4" y="76" width="10" height="10" fill="#355a85"></rect>
  <line x1="20" y1="81" x2="60" y2="81" stroke="#355a85" stroke-width="4" stroke-linecap="round"></line>
</svg>