<svg xmlns="http://www.w3.org/2000/svg" viewBox="0 0 100 100" role="img" aria-label="Inkjet — print head with droplets">

  
  <path d="M 18 10 L 82 10 L 78 40 L 22 40 Z" stroke="#355a85" stroke-width="6" fill="none" stroke-linejoin="round"></path>
  
  <line x1="22" y1="40" x2="78" y2="40" stroke="#355a85" stroke-width="6"></line>
  
  <path d="M 32 54 C 32 50, 28 46, 30 44 C 32 46, 36 50, 36 54 A 4 4 0 0 1 32 58 A 4 4 0 0 1 28 54 Z" fill="#355a85"></path>
  <path d="M 52 64 C 52 60, 48 56, 50 54 C 52 56, 56 60, 56 64 A 4 4 0 0 1 52 68 A 4 4 0 0 1 48 64 Z" fill="#355a85"></path>
  <path d="M 72 54 C 72 50, 68 46, 70 44 C 72 46, 76 50, 76 54 A 4 4 0 0 1 72 58 A 4 4 0 0 1 68 54 Z" fill="#355a85"></path>
  
  <line x1="14" y1="86" x2="86" y2="86" stroke="#355a85" stroke-width="6" stroke-linecap="round"></line>
  
  <g fill="#355a85"><circle cx="32" cy="80" r="2.4"></circle><circle cx="52" cy="80" r="2.4"></circle><circle cx="72" cy="80" r="2.4"></circle></g>
</svg>