<svg xmlns="http://www.w3.org/2000/svg" viewBox="0 0 100 100" role="img" aria-label="Marlowe — GPU chip">

  <rect x="20" y="20" width="60" height="60" rx="4" stroke="#355a85" stroke-width="7" fill="none"></rect>
  <rect x="38" y="38" width="24" height="24" fill="#355a85"></rect>
  <g stroke="#355a85" stroke-width="5" stroke-linecap="round">
    <line x1="30" y1="20" x2="30" y2="8"></line><line x1="44" y1="20" x2="44" y2="8"></line><line x1="56" y1="20" x2="56" y2="8"></line><line x1="70" y1="20" x2="70" y2="8"></line>
    <line x1="30" y1="80" x2="30" y2="92"></line><line x1="44" y1="80" x2="44" y2="92"></line><line x1="56" y1="80" x2="56" y2="92"></line><line x1="70" y1="80" x2="70" y2="92"></line>
    <line x1="20" y1="30" x2="8" y2="30"></line><line x1="20" y1="44" x2="8" y2="44"></line><line x1="20" y1="56" x2="8" y2="56"></line><line x1="20" y1="70" x2="8" y2="70"></line>
    <line x1="80" y1="30" x2="92" y2="30"></line><line x1="80" y1="44" x2="92" y2="44"></line><line x1="80" y1="56" x2="92" y2="56"></line><line x1="80" y1="70" x2="92" y2="70"></line>
  </g>
</svg>